<svg xmlns="http://www.w3.org/2000/svg" xmlns:xlink="http://www.w3.org/1999/xlink" width="500" zoomAndPan="magnify" viewBox="0 0 375 374.999991" height="500" preserveAspectRatio="xMidYMid meet" version="1.0"><defs><g/><clipPath id="b16605827c"><path d="M 190 93.898438 L 207 93.898438 L 207 138 L 190 138 Z M 190 93.898438 " clip-rule="nonzero"/></clipPath><clipPath id="7faddccaf2"><path d="M 168 93.898438 L 185 93.898438 L 185 138 L 168 138 Z M 168 93.898438 " clip-rule="nonzero"/></clipPath><clipPath id="5fbcf9d2ec"><path d="M 128.109375 131 L 175 131 L 175 150 L 128.109375 150 Z M 128.109375 131 " clip-rule="nonzero"/></clipPath><clipPath id="f258e2e14a"><path d="M 128.109375 153 L 175 153 L 175 171 L 128.109375 171 Z M 128.109375 153 " clip-rule="nonzero"/></clipPath><clipPath id="c299bc6d40"><path d="M 190 165 L 207 165 L 207 208.648438 L 190 208.648438 Z M 190 165 " clip-rule="nonzero"/></clipPath><clipPath id="435e7fb6ad"><path d="M 168 165 L 185 165 L 185 208.648438 L 168 208.648438 Z M 168 165 " clip-rule="nonzero"/></clipPath><clipPath id="07fb4cc5c9"><path d="M 200 153 L 246.609375 153 L 246.609375 171 L 200 171 Z M 200 153 " clip-rule="nonzero"/></clipPath><clipPath id="9fae2bb442"><path d="M 200 131 L 246.609375 131 L 246.609375 150 L 200 150 Z M 200 131 " clip-rule="nonzero"/></clipPath></defs><rect x="-37.5" width="450" fill="#ffffff" y="-37.499999" height="449.999989" fill-opacity="1"/><rect x="-37.5" width="450" fill="#687259" y="-37.499999" height="449.999989" fill-opacity="1"/><g clip-path="url(#b16605827c)"><path fill="#25330f" d="M 192.632812 134.574219 L 192.632812 126.328125 L 199.570312 122.609375 C 201.863281 121.378906 203.679688 119.640625 204.921875 117.566406 C 206.167969 115.492188 206.839844 112.785156 206.839844 110.179688 L 206.839844 93.898438 L 204.972656 94.976562 L 197.066406 99.5 C 194.875 100.742188 193.140625 102.480469 191.960938 104.515625 C 190.78125 106.5625 190.144531 110.527344 190.144531 113.054688 L 190.144531 120.675781 L 191.324219 120.042969 C 192.15625 119.601562 192.648438 118.785156 192.648438 117.839844 L 192.648438 113.054688 C 192.648438 110.96875 193.164062 109.039062 194.125 107.378906 C 195.085938 105.71875 196.511719 104.308594 198.324219 103.269531 L 204.363281 99.808594 L 204.363281 110.179688 C 204.363281 112.316406 203.820312 114.3125 202.808594 116 C 201.796875 117.695312 200.308594 119.109375 198.429688 120.121094 L 191.480469 123.839844 C 190.652344 124.28125 190.160156 125.097656 190.160156 126.042969 L 190.160156 137.398438 L 191.339844 136.761719 C 192.15625 136.335938 192.632812 135.519531 192.632812 134.574219 Z M 192.632812 134.574219 " fill-opacity="1" fill-rule="nonzero"/></g><g clip-path="url(#7faddccaf2)"><path fill="#25330f" d="M 175.421875 122.621094 L 182.355469 126.34375 L 182.355469 134.585938 C 182.355469 135.53125 182.835938 136.347656 183.679688 136.789062 L 184.859375 137.425781 L 184.859375 126.070312 C 184.859375 125.125 184.363281 124.308594 183.535156 123.867188 L 176.589844 120.144531 C 174.707031 119.136719 173.21875 117.722656 172.207031 116.023438 C 171.195312 114.339844 170.652344 112.34375 170.652344 110.203125 L 170.652344 99.835938 L 176.691406 103.296875 C 178.492188 104.332031 179.917969 105.746094 180.890625 107.40625 C 181.851562 109.0625 182.367188 110.996094 182.367188 113.082031 L 182.367188 117.863281 C 182.367188 118.8125 182.863281 119.628906 183.691406 120.070312 L 184.871094 120.703125 L 184.871094 113.082031 C 184.871094 110.554688 184.234375 106.589844 183.054688 104.539062 C 181.863281 102.492188 180.140625 100.769531 177.949219 99.523438 L 170.042969 95 L 168.175781 93.925781 L 168.175781 110.203125 C 168.175781 112.796875 168.851562 115.507812 170.09375 117.59375 C 171.3125 119.652344 173.128906 121.390625 175.421875 122.621094 Z M 175.421875 122.621094 " fill-opacity="1" fill-rule="nonzero"/></g><path fill="#25330f" d="M 155.71875 129.894531 L 159.386719 132.007812 L 162.332031 133.703125 L 162.371094 132.367188 C 162.394531 131.421875 161.941406 130.59375 161.125 130.113281 L 160.644531 129.839844 L 156.976562 127.730469 C 155.175781 126.691406 153.75 125.265625 152.789062 123.605469 C 151.832031 121.949219 151.324219 120.003906 151.339844 117.917969 L 151.363281 110.957031 L 160.347656 116.140625 C 162.199219 117.21875 163.652344 118.679688 164.613281 120.40625 C 165.570312 122.128906 166.0625 124.125 165.984375 126.265625 L 165.738281 134.144531 C 165.714844 135.089844 166.167969 135.921875 166.984375 136.386719 L 176.820312 142.0625 L 176.859375 140.714844 C 176.886719 139.769531 176.433594 138.941406 175.617188 138.472656 L 168.472656 134.351562 L 168.71875 126.484375 C 168.8125 123.890625 168.214844 121.441406 167.035156 119.328125 C 165.855469 117.21875 163.847656 115.273438 161.605469 113.976562 L 150.742188 107.714844 L 147.488281 105.835938 L 147.476562 107.988281 L 147.4375 117.101562 C 147.425781 119.628906 148.058594 121.988281 149.226562 124.035156 C 150.417969 126.09375 153.53125 128.625 155.71875 129.894531 Z M 155.71875 129.894531 " fill-opacity="1" fill-rule="nonzero"/><g clip-path="url(#5fbcf9d2ec)"><path fill="#25330f" d="M 142.238281 147.496094 C 144.480469 148.792969 147.164062 149.554688 149.589844 149.53125 C 152.011719 149.492188 154.425781 148.792969 156.640625 147.417969 L 163.328125 143.269531 L 170.46875 147.390625 C 171.285156 147.859375 172.234375 147.84375 173.035156 147.351562 L 174.175781 146.640625 L 164.339844 140.960938 C 163.523438 140.496094 162.578125 140.507812 161.773438 141 L 155.070312 145.164062 C 153.257812 146.289062 151.289062 146.871094 149.316406 146.898438 C 147.347656 146.925781 145.351562 146.40625 143.496094 145.34375 L 134.515625 140.160156 L 140.527344 136.660156 C 142.332031 135.609375 144.261719 135.078125 146.179688 135.078125 C 148.097656 135.078125 150.03125 135.597656 151.832031 136.632812 L 155.5 138.746094 L 155.980469 139.019531 C 156.796875 139.496094 157.742188 139.472656 158.546875 138.980469 L 159.6875 138.28125 L 156.742188 136.582031 L 153.074219 134.46875 C 150.886719 133.210938 147.140625 131.773438 144.765625 131.773438 C 142.410156 131.785156 140.050781 132.421875 137.859375 133.691406 L 129.976562 138.28125 L 128.113281 139.367188 L 131.367188 141.246094 Z M 142.238281 147.496094 " fill-opacity="1" fill-rule="nonzero"/></g><path fill="#25330f" d="M 168.460938 168.207031 L 175.601562 164.085938 C 176.417969 163.621094 176.886719 162.789062 176.847656 161.84375 L 176.808594 160.496094 L 166.984375 166.171875 C 166.167969 166.652344 165.699219 167.480469 165.726562 168.414062 L 165.972656 176.296875 C 166.039062 178.421875 165.558594 180.429688 164.597656 182.15625 C 163.640625 183.878906 162.1875 185.34375 160.335938 186.417969 L 151.351562 191.601562 L 151.324219 184.644531 C 151.3125 182.554688 151.832031 180.625 152.777344 178.953125 C 153.738281 177.292969 155.148438 175.882812 156.964844 174.832031 L 160.632812 172.71875 L 161.113281 172.445312 C 161.929688 171.964844 162.394531 171.148438 162.355469 170.191406 L 162.316406 168.855469 L 159.375 170.554688 L 155.707031 172.667969 C 153.515625 173.921875 150.40625 176.464844 149.226562 178.511719 C 148.046875 180.558594 147.425781 182.917969 147.4375 185.445312 L 147.476562 194.558594 L 147.488281 196.710938 L 150.742188 194.832031 L 161.589844 188.570312 C 163.832031 187.273438 165.84375 185.328125 167.023438 183.21875 C 168.203125 181.105469 168.796875 178.65625 168.707031 176.0625 Z M 168.460938 168.207031 " fill-opacity="1" fill-rule="nonzero"/><g clip-path="url(#f258e2e14a)"><path fill="#25330f" d="M 156.742188 165.992188 L 159.6875 164.292969 L 158.546875 163.59375 C 157.742188 163.101562 156.796875 163.074219 155.980469 163.554688 L 155.5 163.828125 L 151.832031 165.941406 C 150.03125 166.976562 148.085938 167.507812 146.179688 167.496094 C 144.261719 167.496094 142.332031 166.964844 140.527344 165.914062 L 134.515625 162.414062 L 143.496094 157.230469 C 145.351562 156.152344 147.347656 155.636719 149.316406 155.675781 C 151.289062 155.699219 153.269531 156.28125 155.070312 157.410156 L 161.773438 161.570312 C 162.578125 162.078125 163.523438 162.078125 164.339844 161.609375 L 174.175781 155.933594 L 173.035156 155.21875 C 172.234375 154.726562 171.285156 154.714844 170.46875 155.179688 L 163.328125 159.304688 L 156.640625 155.15625 C 154.4375 153.78125 152.011719 153.082031 149.589844 153.042969 C 147.164062 153.003906 144.480469 153.769531 142.238281 155.078125 L 131.390625 161.339844 L 128.136719 163.21875 L 130.003906 164.304688 L 137.886719 168.894531 C 140.0625 170.164062 142.421875 170.800781 144.792969 170.8125 C 147.152344 170.8125 150.910156 169.386719 153.101562 168.117188 Z M 156.742188 165.992188 " fill-opacity="1" fill-rule="nonzero"/></g><g clip-path="url(#c299bc6d40)"><path fill="#25330f" d="M 199.582031 179.9375 L 192.648438 176.21875 L 192.648438 167.988281 C 192.648438 167.042969 192.15625 166.226562 191.324219 165.785156 L 190.144531 165.148438 L 190.144531 176.503906 C 190.144531 177.449219 190.636719 178.265625 191.46875 178.707031 L 198.414062 182.425781 C 200.292969 183.4375 201.785156 184.851562 202.796875 186.546875 C 203.808594 188.234375 204.351562 190.230469 204.351562 192.367188 L 204.351562 202.738281 L 198.3125 199.277344 C 196.511719 198.238281 195.085938 196.839844 194.113281 195.179688 C 193.152344 193.523438 192.632812 191.589844 192.632812 189.503906 L 192.632812 184.722656 C 192.632812 183.773438 192.140625 182.957031 191.3125 182.515625 L 190.132812 181.882812 L 190.132812 189.503906 C 190.132812 192.03125 190.769531 195.996094 191.949219 198.046875 C 193.128906 200.09375 194.863281 201.816406 197.054688 203.0625 L 204.960938 207.585938 L 206.828125 208.660156 L 206.828125 192.382812 C 206.828125 189.789062 206.152344 187.078125 204.910156 184.992188 C 203.691406 182.90625 201.863281 181.167969 199.582031 179.9375 Z M 199.582031 179.9375 " fill-opacity="1" fill-rule="nonzero"/></g><g clip-path="url(#435e7fb6ad)"><path fill="#25330f" d="M 182.355469 167.988281 L 182.355469 176.230469 L 175.421875 179.949219 C 173.128906 181.167969 171.3125 182.917969 170.070312 184.992188 C 168.824219 187.078125 168.148438 189.789062 168.148438 192.382812 L 168.148438 208.660156 L 170.015625 207.585938 L 177.9375 203.0625 C 180.125 201.816406 181.863281 200.082031 183.042969 198.046875 C 184.222656 195.996094 184.859375 192.03125 184.859375 189.503906 L 184.859375 181.882812 L 183.679688 182.515625 C 182.847656 182.957031 182.355469 183.773438 182.355469 184.722656 L 182.355469 189.503906 C 182.355469 191.589844 181.835938 193.523438 180.878906 195.179688 C 179.917969 196.839844 178.492188 198.253906 176.679688 199.277344 L 170.640625 202.738281 L 170.640625 192.367188 C 170.640625 190.230469 171.183594 188.234375 172.195312 186.546875 C 173.207031 184.851562 174.695312 183.4375 176.574219 182.425781 L 183.523438 178.707031 C 184.351562 178.265625 184.84375 177.449219 184.84375 176.503906 L 184.84375 165.148438 L 183.664062 165.785156 C 182.847656 166.226562 182.355469 167.042969 182.355469 167.988281 Z M 182.355469 167.988281 " fill-opacity="1" fill-rule="nonzero"/></g><g clip-path="url(#07fb4cc5c9)"><path fill="#25330f" d="M 243.597656 161.324219 L 232.75 155.066406 C 230.507812 153.769531 227.824219 152.992188 225.402344 153.03125 C 222.976562 153.070312 220.566406 153.769531 218.351562 155.140625 L 211.664062 159.289062 L 204.519531 155.167969 C 203.703125 154.703125 202.757812 154.703125 201.953125 155.207031 L 200.8125 155.921875 L 210.652344 161.597656 C 211.46875 162.0625 212.414062 162.050781 213.21875 161.558594 L 219.917969 157.398438 C 221.734375 156.269531 223.703125 155.6875 225.671875 155.660156 C 227.644531 155.636719 229.640625 156.152344 231.492188 157.214844 L 240.476562 162.402344 L 234.460938 165.902344 C 232.660156 166.949219 230.730469 167.480469 228.808594 167.480469 C 226.890625 167.480469 224.960938 166.964844 223.160156 165.925781 L 219.492188 163.8125 L 219.011719 163.542969 C 218.195312 163.0625 217.25 163.089844 216.445312 163.582031 L 215.304688 164.28125 L 218.246094 165.976562 L 221.914062 168.089844 C 224.105469 169.347656 227.851562 170.789062 230.222656 170.789062 C 232.582031 170.773438 234.941406 170.140625 237.132812 168.867188 L 245.011719 164.28125 L 246.878906 163.191406 Z M 243.597656 161.324219 " fill-opacity="1" fill-rule="nonzero"/></g><path fill="#25330f" d="M 219.269531 172.667969 L 215.601562 170.554688 L 212.660156 168.855469 L 212.632812 170.191406 C 212.609375 171.136719 213.0625 171.964844 213.878906 172.445312 L 214.359375 172.71875 L 218.027344 174.832031 C 219.828125 175.867188 221.253906 177.292969 222.199219 178.953125 C 223.160156 180.613281 223.664062 182.554688 223.652344 184.628906 L 223.625 191.589844 L 214.644531 186.40625 C 212.789062 185.328125 211.339844 183.867188 210.378906 182.140625 C 209.417969 180.417969 208.925781 178.421875 209.003906 176.28125 L 209.25 168.402344 C 209.277344 167.457031 208.824219 166.625 207.992188 166.160156 L 198.15625 160.484375 L 198.117188 161.832031 C 198.089844 162.777344 198.546875 163.605469 199.363281 164.074219 L 206.503906 168.195312 L 206.246094 176.0625 C 206.152344 178.65625 206.75 181.105469 207.929688 183.21875 C 209.109375 185.328125 211.117188 187.273438 213.359375 188.570312 L 224.207031 194.832031 L 227.460938 196.710938 L 227.476562 194.558594 L 227.515625 185.445312 C 227.527344 182.917969 226.890625 180.558594 225.726562 178.511719 C 224.585938 176.464844 221.460938 173.9375 219.269531 172.667969 Z M 219.269531 172.667969 " fill-opacity="1" fill-rule="nonzero"/><path fill="#25330f" d="M 206.53125 134.351562 L 199.386719 138.472656 C 198.570312 138.941406 198.105469 139.769531 198.144531 140.714844 L 198.183594 142.0625 L 208.019531 136.386719 C 208.835938 135.90625 209.304688 135.078125 209.277344 134.144531 L 209.03125 126.265625 C 208.964844 124.125 209.445312 122.128906 210.40625 120.40625 C 211.363281 118.679688 212.804688 117.21875 214.667969 116.140625 L 223.652344 110.957031 L 223.675781 117.917969 C 223.691406 120.003906 223.171875 121.933594 222.226562 123.605469 C 221.265625 125.265625 219.855469 126.679688 218.039062 127.730469 L 214.371094 129.839844 L 213.890625 130.113281 C 213.074219 130.59375 212.609375 131.410156 212.648438 132.355469 L 212.6875 133.691406 L 215.628906 131.992188 L 219.296875 129.878906 C 221.488281 128.625 224.597656 126.082031 225.777344 124.035156 C 226.957031 121.988281 227.578125 119.628906 227.566406 117.101562 L 227.527344 107.988281 L 227.515625 105.835938 L 224.261719 107.714844 L 213.410156 113.976562 C 211.167969 115.273438 209.160156 117.21875 207.980469 119.328125 C 206.800781 121.441406 206.207031 123.890625 206.296875 126.484375 Z M 206.53125 134.351562 " fill-opacity="1" fill-rule="nonzero"/><g clip-path="url(#9fae2bb442)"><path fill="#25330f" d="M 218.246094 136.570312 L 215.304688 138.265625 L 216.445312 138.964844 C 217.25 139.460938 218.195312 139.484375 219.011719 139.003906 L 219.492188 138.734375 L 223.160156 136.621094 C 224.960938 135.582031 226.90625 135.050781 228.808594 135.066406 C 230.730469 135.066406 232.660156 135.597656 234.460938 136.644531 L 240.476562 140.144531 L 231.492188 145.332031 C 229.640625 146.40625 227.644531 146.925781 225.671875 146.886719 C 223.703125 146.859375 221.71875 146.277344 219.917969 145.148438 L 213.21875 140.988281 C 212.414062 140.484375 211.46875 140.46875 210.652344 140.949219 L 200.8125 146.625 L 201.953125 147.328125 C 202.757812 147.820312 203.703125 147.84375 204.519531 147.367188 L 211.664062 143.242188 L 218.351562 147.390625 C 220.554688 148.765625 222.976562 149.464844 225.402344 149.503906 C 227.824219 149.542969 230.507812 148.777344 232.75 147.46875 L 243.597656 141.207031 L 246.851562 139.328125 L 244.984375 138.242188 L 237.105469 133.652344 C 234.929688 132.382812 232.570312 131.746094 230.195312 131.734375 C 227.839844 131.734375 224.078125 133.160156 221.890625 134.429688 Z M 218.246094 136.570312 " fill-opacity="1" fill-rule="nonzero"/></g><g fill="#25330f" fill-opacity="1"><g transform="translate(114.76616, 275.782496)"><g><path d="M 3.140625 -0.4375 C 3.890625 -0.4375 4.53125 -0.703125 5.0625 -1.234375 C 5.59375 -1.765625 5.875 -2.398438 5.90625 -3.140625 L 5.90625 -27.265625 C 5.8125 -27.953125 5.503906 -28.53125 4.984375 -29 C 4.472656 -29.476562 3.859375 -29.71875 3.140625 -29.71875 L 2.625 -29.71875 L 2.578125 -30.15625 L 15.203125 -30.15625 C 16.097656 -30.15625 17.066406 -30.238281 18.109375 -30.40625 C 19.160156 -30.582031 19.898438 -30.757812 20.328125 -30.9375 L 20.328125 -25.5 L 19.90625 -25.5 L 19.90625 -26.28125 C 19.90625 -26.96875 19.664062 -27.554688 19.1875 -28.046875 C 18.71875 -28.535156 18.148438 -28.789062 17.484375 -28.8125 L 8.703125 -28.8125 L 8.703125 -15.515625 L 15.984375 -15.515625 C 16.554688 -15.535156 17.039062 -15.742188 17.4375 -16.140625 C 17.84375 -16.546875 18.046875 -17.050781 18.046875 -17.65625 L 18.046875 -18.265625 L 18.484375 -18.265625 L 18.484375 -11.453125 L 18.046875 -11.453125 L 18.046875 -12.109375 C 18.046875 -12.679688 17.851562 -13.164062 17.46875 -13.5625 C 17.082031 -13.96875 16.601562 -14.1875 16.03125 -14.21875 L 8.703125 -14.21875 L 8.703125 -1.328125 L 14.859375 -1.328125 C 16.984375 -1.328125 18.601562 -1.800781 19.71875 -2.75 C 20.84375 -3.695312 21.78125 -5.109375 22.53125 -6.984375 L 22.953125 -6.984375 L 20.46875 0 L 2.578125 0 L 2.578125 -0.4375 Z M 3.140625 -0.4375 "/></g></g></g><g fill="#25330f" fill-opacity="1"><g transform="translate(172.050101, 275.782496)"><g><path d="M 11.453125 -28.8125 L 8.703125 -28.8125 L 8.703125 -3.140625 C 8.703125 -2.398438 8.96875 -1.765625 9.5 -1.234375 C 10.03125 -0.703125 10.679688 -0.4375 11.453125 -0.4375 L 11.96875 -0.4375 L 12.015625 0 L 2.578125 0 L 2.578125 -0.4375 L 3.140625 -0.4375 C 3.890625 -0.4375 4.53125 -0.691406 5.0625 -1.203125 C 5.59375 -1.722656 5.875 -2.359375 5.90625 -3.109375 L 5.90625 -27.015625 C 5.875 -27.753906 5.59375 -28.390625 5.0625 -28.921875 C 4.53125 -29.453125 3.890625 -29.71875 3.140625 -29.71875 L 2.578125 -29.71875 L 2.578125 -30.15625 L 14.21875 -30.15625 C 16.832031 -30.15625 18.882812 -29.425781 20.375 -27.96875 C 21.863281 -26.519531 22.609375 -24.640625 22.609375 -22.328125 C 22.609375 -20.023438 21.894531 -18.03125 20.46875 -16.34375 C 19.050781 -14.664062 17.328125 -13.828125 15.296875 -13.828125 C 15.722656 -13.628906 16.226562 -13.234375 16.8125 -12.640625 C 17.40625 -12.054688 17.929688 -11.445312 18.390625 -10.8125 C 20.859375 -7.28125 22.46875 -5.101562 23.21875 -4.28125 C 23.96875 -3.46875 24.5 -2.910156 24.8125 -2.609375 C 25.125 -2.304688 25.46875 -2.007812 25.84375 -1.71875 C 26.21875 -1.4375 26.59375 -1.207031 26.96875 -1.03125 C 27.800781 -0.632812 28.691406 -0.4375 29.640625 -0.4375 L 29.640625 0 L 27.265625 0 C 26.035156 0 24.890625 -0.21875 23.828125 -0.65625 C 22.765625 -1.101562 21.96875 -1.5625 21.4375 -2.03125 C 20.90625 -2.507812 20.441406 -2.972656 20.046875 -3.421875 C 19.660156 -3.867188 18.59375 -5.351562 16.84375 -7.875 C 15.09375 -10.40625 14.070312 -11.847656 13.78125 -12.203125 C 13.5 -12.566406 13.195312 -12.921875 12.875 -13.265625 C 11.957031 -14.242188 11.039062 -14.734375 10.125 -14.734375 L 10.125 -15.15625 C 10.351562 -15.132812 10.65625 -15.125 11.03125 -15.125 C 11.40625 -15.125 11.863281 -15.132812 12.40625 -15.15625 C 15.96875 -15.25 18.207031 -16.742188 19.125 -19.640625 C 19.300781 -20.210938 19.390625 -20.75 19.390625 -21.25 C 19.390625 -21.757812 19.390625 -22.085938 19.390625 -22.234375 C 19.328125 -24.148438 18.820312 -25.695312 17.875 -26.875 C 16.925781 -28.050781 15.648438 -28.6875 14.046875 -28.78125 C 13.359375 -28.800781 12.492188 -28.8125 11.453125 -28.8125 Z M 11.453125 -28.8125 "/></g></g></g><g fill="#25330f" fill-opacity="1"><g transform="translate(233.640694, 275.782496)"><g><path d="M 25.375 -26.328125 C 25.375 -27.015625 25.128906 -27.609375 24.640625 -28.109375 C 24.148438 -28.609375 23.578125 -28.875 22.921875 -28.90625 L 14.734375 -28.90625 L 14.734375 -3.109375 C 14.765625 -2.359375 15.046875 -1.722656 15.578125 -1.203125 C 16.109375 -0.691406 16.742188 -0.4375 17.484375 -0.4375 L 18.046875 -0.4375 L 18.046875 0 L 8.609375 0 L 8.609375 -0.4375 L 9.171875 -0.4375 C 9.921875 -0.4375 10.5625 -0.691406 11.09375 -1.203125 C 11.625 -1.722656 11.90625 -2.34375 11.9375 -3.0625 L 11.9375 -28.90625 L 3.75 -28.90625 C 3.0625 -28.875 2.476562 -28.609375 2 -28.109375 C 1.53125 -27.609375 1.296875 -27.015625 1.296875 -26.328125 L 1.296875 -25.59375 L 0.859375 -25.546875 L 0.859375 -30.96875 C 1.285156 -30.800781 2.03125 -30.628906 3.09375 -30.453125 C 4.164062 -30.285156 5.144531 -30.203125 6.03125 -30.203125 L 20.59375 -30.203125 C 22 -30.203125 23.164062 -30.304688 24.09375 -30.515625 C 25.03125 -30.734375 25.597656 -30.882812 25.796875 -30.96875 L 25.796875 -25.546875 L 25.375 -25.59375 Z M 25.375 -26.328125 "/></g></g></g><g fill="#25330f" fill-opacity="1"><g transform="translate(114.74925, 274.813487)"><g><path d="M 3.140625 -0.4375 C 3.890625 -0.4375 4.53125 -0.703125 5.0625 -1.234375 C 5.59375 -1.765625 5.875 -2.398438 5.90625 -3.140625 L 5.90625 -27.265625 C 5.8125 -27.953125 5.503906 -28.53125 4.984375 -29 C 4.472656 -29.476562 3.859375 -29.71875 3.140625 -29.71875 L 2.625 -29.71875 L 2.578125 -30.15625 L 15.203125 -30.15625 C 16.097656 -30.15625 17.066406 -30.238281 18.109375 -30.40625 C 19.160156 -30.582031 19.898438 -30.757812 20.328125 -30.9375 L 20.328125 -25.5 L 19.90625 -25.5 L 19.90625 -26.28125 C 19.90625 -26.96875 19.664062 -27.554688 19.1875 -28.046875 C 18.71875 -28.535156 18.148438 -28.789062 17.484375 -28.8125 L 8.703125 -28.8125 L 8.703125 -15.515625 L 15.984375 -15.515625 C 16.554688 -15.535156 17.039062 -15.742188 17.4375 -16.140625 C 17.84375 -16.546875 18.046875 -17.050781 18.046875 -17.65625 L 18.046875 -18.265625 L 18.484375 -18.265625 L 18.484375 -11.453125 L 18.046875 -11.453125 L 18.046875 -12.109375 C 18.046875 -12.679688 17.851562 -13.164062 17.46875 -13.5625 C 17.082031 -13.96875 16.601562 -14.1875 16.03125 -14.21875 L 8.703125 -14.21875 L 8.703125 -1.328125 L 14.859375 -1.328125 C 16.984375 -1.328125 18.601562 -1.800781 19.71875 -2.75 C 20.84375 -3.695312 21.78125 -5.109375 22.53125 -6.984375 L 22.953125 -6.984375 L 20.46875 0 L 2.578125 0 L 2.578125 -0.4375 Z M 3.140625 -0.4375 "/></g></g></g><g fill="#25330f" fill-opacity="1"><g transform="translate(172.033191, 274.813487)"><g><path d="M 11.453125 -28.8125 L 8.703125 -28.8125 L 8.703125 -3.140625 C 8.703125 -2.398438 8.96875 -1.765625 9.5 -1.234375 C 10.03125 -0.703125 10.679688 -0.4375 11.453125 -0.4375 L 11.96875 -0.4375 L 12.015625 0 L 2.578125 0 L 2.578125 -0.4375 L 3.140625 -0.4375 C 3.890625 -0.4375 4.53125 -0.691406 5.0625 -1.203125 C 5.59375 -1.722656 5.875 -2.359375 5.90625 -3.109375 L 5.90625 -27.015625 C 5.875 -27.753906 5.59375 -28.390625 5.0625 -28.921875 C 4.53125 -29.453125 3.890625 -29.71875 3.140625 -29.71875 L 2.578125 -29.71875 L 2.578125 -30.15625 L 14.21875 -30.15625 C 16.832031 -30.15625 18.882812 -29.425781 20.375 -27.96875 C 21.863281 -26.519531 22.609375 -24.640625 22.609375 -22.328125 C 22.609375 -20.023438 21.894531 -18.03125 20.46875 -16.34375 C 19.050781 -14.664062 17.328125 -13.828125 15.296875 -13.828125 C 15.722656 -13.628906 16.226562 -13.234375 16.8125 -12.640625 C 17.40625 -12.054688 17.929688 -11.445312 18.390625 -10.8125 C 20.859375 -7.28125 22.46875 -5.101562 23.21875 -4.28125 C 23.96875 -3.46875 24.5 -2.910156 24.8125 -2.609375 C 25.125 -2.304688 25.46875 -2.007812 25.84375 -1.71875 C 26.21875 -1.4375 26.59375 -1.207031 26.96875 -1.03125 C 27.800781 -0.632812 28.691406 -0.4375 29.640625 -0.4375 L 29.640625 0 L 27.265625 0 C 26.035156 0 24.890625 -0.21875 23.828125 -0.65625 C 22.765625 -1.101562 21.96875 -1.5625 21.4375 -2.03125 C 20.90625 -2.507812 20.441406 -2.972656 20.046875 -3.421875 C 19.660156 -3.867188 18.59375 -5.351562 16.84375 -7.875 C 15.09375 -10.40625 14.070312 -11.847656 13.78125 -12.203125 C 13.5 -12.566406 13.195312 -12.921875 12.875 -13.265625 C 11.957031 -14.242188 11.039062 -14.734375 10.125 -14.734375 L 10.125 -15.15625 C 10.351562 -15.132812 10.65625 -15.125 11.03125 -15.125 C 11.40625 -15.125 11.863281 -15.132812 12.40625 -15.15625 C 15.96875 -15.25 18.207031 -16.742188 19.125 -19.640625 C 19.300781 -20.210938 19.390625 -20.75 19.390625 -21.25 C 19.390625 -21.757812 19.390625 -22.085938 19.390625 -22.234375 C 19.328125 -24.148438 18.820312 -25.695312 17.875 -26.875 C 16.925781 -28.050781 15.648438 -28.6875 14.046875 -28.78125 C 13.359375 -28.800781 12.492188 -28.8125 11.453125 -28.8125 Z M 11.453125 -28.8125 "/></g></g></g><g fill="#25330f" fill-opacity="1"><g transform="translate(233.623784, 274.813487)"><g><path d="M 25.375 -26.328125 C 25.375 -27.015625 25.128906 -27.609375 24.640625 -28.109375 C 24.148438 -28.609375 23.578125 -28.875 22.921875 -28.90625 L 14.734375 -28.90625 L 14.734375 -3.109375 C 14.765625 -2.359375 15.046875 -1.722656 15.578125 -1.203125 C 16.109375 -0.691406 16.742188 -0.4375 17.484375 -0.4375 L 18.046875 -0.4375 L 18.046875 0 L 8.609375 0 L 8.609375 -0.4375 L 9.171875 -0.4375 C 9.921875 -0.4375 10.5625 -0.691406 11.09375 -1.203125 C 11.625 -1.722656 11.90625 -2.34375 11.9375 -3.0625 L 11.9375 -28.90625 L 3.75 -28.90625 C 3.0625 -28.875 2.476562 -28.609375 2 -28.109375 C 1.53125 -27.609375 1.296875 -27.015625 1.296875 -26.328125 L 1.296875 -25.59375 L 0.859375 -25.546875 L 0.859375 -30.96875 C 1.285156 -30.800781 2.03125 -30.628906 3.09375 -30.453125 C 4.164062 -30.285156 5.144531 -30.203125 6.03125 -30.203125 L 20.59375 -30.203125 C 22 -30.203125 23.164062 -30.304688 24.09375 -30.515625 C 25.03125 -30.734375 25.597656 -30.882812 25.796875 -30.96875 L 25.796875 -25.546875 L 25.375 -25.59375 Z M 25.375 -26.328125 "/></g></g></g><g fill="#25330f" fill-opacity="1"><g transform="translate(162.241122, 234.936839)"><g><path d="M 8.25 -8.546875 C 8.25 -8.773438 8.164062 -8.96875 8 -9.125 C 7.84375 -9.289062 7.660156 -9.378906 7.453125 -9.390625 L 4.78125 -9.390625 L 4.78125 -1.015625 C 4.789062 -0.765625 4.878906 -0.554688 5.046875 -0.390625 C 5.222656 -0.222656 5.4375 -0.140625 5.6875 -0.140625 L 5.859375 -0.140625 L 5.859375 0 L 2.796875 0 L 2.796875 -0.140625 L 2.984375 -0.140625 C 3.222656 -0.140625 3.425781 -0.222656 3.59375 -0.390625 C 3.769531 -0.554688 3.863281 -0.757812 3.875 -1 L 3.875 -9.390625 L 1.21875 -9.390625 C 0.988281 -9.378906 0.796875 -9.289062 0.640625 -9.125 C 0.492188 -8.96875 0.421875 -8.773438 0.421875 -8.546875 L 0.421875 -8.3125 L 0.28125 -8.296875 L 0.28125 -10.0625 C 0.414062 -10.007812 0.65625 -9.953125 1 -9.890625 C 1.351562 -9.835938 1.671875 -9.8125 1.953125 -9.8125 L 6.6875 -9.8125 C 7.144531 -9.8125 7.523438 -9.847656 7.828125 -9.921875 C 8.128906 -9.992188 8.316406 -10.039062 8.390625 -10.0625 L 8.390625 -8.296875 L 8.25 -8.3125 Z M 8.25 -8.546875 "/></g></g></g><g fill="#25330f" fill-opacity="1"><g transform="translate(182.088259, 234.936839)"><g><path d="M 7.65625 -0.140625 C 7.894531 -0.140625 8.101562 -0.222656 8.28125 -0.390625 C 8.457031 -0.554688 8.546875 -0.765625 8.546875 -1.015625 L 8.546875 -4.640625 L 2.828125 -4.640625 L 2.828125 -1.015625 C 2.828125 -0.773438 2.914062 -0.566406 3.09375 -0.390625 C 3.269531 -0.222656 3.476562 -0.140625 3.71875 -0.140625 L 3.90625 -0.140625 L 3.90625 0 L 0.84375 0 L 0.84375 -0.140625 L 1.015625 -0.140625 C 1.265625 -0.140625 1.472656 -0.222656 1.640625 -0.390625 C 1.816406 -0.566406 1.910156 -0.773438 1.921875 -1.015625 L 1.921875 -8.796875 C 1.910156 -9.035156 1.816406 -9.238281 1.640625 -9.40625 C 1.472656 -9.570312 1.265625 -9.65625 1.015625 -9.65625 L 0.84375 -9.65625 L 0.84375 -9.796875 L 3.90625 -9.796875 L 3.90625 -9.65625 L 3.71875 -9.65625 C 3.476562 -9.65625 3.269531 -9.570312 3.09375 -9.40625 C 2.925781 -9.238281 2.835938 -9.035156 2.828125 -8.796875 L 2.828125 -5.046875 L 8.546875 -5.046875 L 8.546875 -8.796875 C 8.546875 -9.128906 8.398438 -9.378906 8.109375 -9.546875 C 7.960938 -9.617188 7.8125 -9.65625 7.65625 -9.65625 L 7.46875 -9.65625 L 7.46875 -9.796875 L 10.546875 -9.796875 L 10.546875 -9.65625 L 10.359375 -9.65625 C 10.117188 -9.65625 9.910156 -9.566406 9.734375 -9.390625 C 9.566406 -9.222656 9.476562 -9.019531 9.46875 -8.78125 L 9.46875 -1.015625 C 9.476562 -0.773438 9.566406 -0.566406 9.734375 -0.390625 C 9.910156 -0.222656 10.117188 -0.140625 10.359375 -0.140625 L 10.546875 -0.140625 L 10.546875 0 L 7.46875 0 L 7.46875 -0.140625 Z M 7.65625 -0.140625 "/></g></g></g><g fill="#25330f" fill-opacity="1"><g transform="translate(204.663874, 234.936839)"><g><path d="M 1.015625 -0.140625 C 1.265625 -0.140625 1.472656 -0.222656 1.640625 -0.390625 C 1.816406 -0.566406 1.910156 -0.773438 1.921875 -1.015625 L 1.921875 -8.859375 C 1.890625 -9.085938 1.789062 -9.273438 1.625 -9.421875 C 1.457031 -9.578125 1.253906 -9.65625 1.015625 -9.65625 L 0.859375 -9.65625 L 0.84375 -9.796875 L 4.9375 -9.796875 C 5.226562 -9.796875 5.539062 -9.820312 5.875 -9.875 C 6.21875 -9.9375 6.460938 -9.992188 6.609375 -10.046875 L 6.609375 -8.28125 L 6.46875 -8.28125 L 6.46875 -8.546875 C 6.46875 -8.765625 6.390625 -8.953125 6.234375 -9.109375 C 6.078125 -9.273438 5.894531 -9.359375 5.6875 -9.359375 L 2.828125 -9.359375 L 2.828125 -5.046875 L 5.1875 -5.046875 C 5.375 -5.046875 5.53125 -5.113281 5.65625 -5.25 C 5.789062 -5.382812 5.859375 -5.546875 5.859375 -5.734375 L 5.859375 -5.9375 L 6 -5.9375 L 6 -3.71875 L 5.859375 -3.71875 L 5.859375 -3.9375 C 5.859375 -4.125 5.796875 -4.28125 5.671875 -4.40625 C 5.546875 -4.539062 5.390625 -4.613281 5.203125 -4.625 L 2.828125 -4.625 L 2.828125 -0.4375 L 4.828125 -0.4375 C 5.515625 -0.4375 6.039062 -0.585938 6.40625 -0.890625 C 6.769531 -1.203125 7.078125 -1.660156 7.328125 -2.265625 L 7.46875 -2.265625 L 6.65625 0 L 0.84375 0 L 0.84375 -0.140625 Z M 1.015625 -0.140625 "/></g></g></g><g fill="#25330f" fill-opacity="1"><g transform="translate(284.67227, 277.311661)"><g><path d="M 29.203125 0 L 3 0 L 3 -0.453125 L 24 -33.546875 L 7.15625 -33.546875 C 6.320312 -33.515625 5.617188 -33.210938 5.046875 -32.640625 C 4.484375 -32.078125 4.203125 -31.378906 4.203125 -30.546875 L 4.203125 -29.65625 L 3.703125 -29.65625 L 3.703125 -35.953125 C 4.203125 -35.753906 5.082031 -35.550781 6.34375 -35.34375 C 7.613281 -35.144531 8.503906 -35.046875 9.015625 -35.046875 C 9.535156 -35.046875 9.796875 -35.046875 9.796875 -35.046875 L 23.703125 -35.046875 C 25.335938 -35.046875 26.585938 -35.132812 27.453125 -35.3125 C 28.316406 -35.5 28.832031 -35.628906 29 -35.703125 L 29 -35.25 L 7.59375 -1.5 L 23.5 -1.5 C 25.269531 -1.5 26.71875 -2.066406 27.84375 -3.203125 C 28.976562 -4.335938 29.8125 -5.835938 30.34375 -7.703125 L 30.84375 -7.703125 Z M 29.203125 0 "/></g></g></g><g fill="#25330f" fill-opacity="1"><g transform="translate(284.652643, 276.186836)"><g><path d="M 29.203125 0 L 3 0 L 3 -0.453125 L 24 -33.546875 L 7.15625 -33.546875 C 6.320312 -33.515625 5.617188 -33.210938 5.046875 -32.640625 C 4.484375 -32.078125 4.203125 -31.378906 4.203125 -30.546875 L 4.203125 -29.65625 L 3.703125 -29.65625 L 3.703125 -35.953125 C 4.203125 -35.753906 5.082031 -35.550781 6.34375 -35.34375 C 7.613281 -35.144531 8.503906 -35.046875 9.015625 -35.046875 C 9.535156 -35.046875 9.796875 -35.046875 9.796875 -35.046875 L 23.703125 -35.046875 C 25.335938 -35.046875 26.585938 -35.132812 27.453125 -35.3125 C 28.316406 -35.5 28.832031 -35.628906 29 -35.703125 L 29 -35.25 L 7.59375 -1.5 L 23.5 -1.5 C 25.269531 -1.5 26.71875 -2.066406 27.84375 -3.203125 C 28.976562 -4.335938 29.8125 -5.835938 30.34375 -7.703125 L 30.84375 -7.703125 Z M 29.203125 0 "/></g></g></g><g fill="#25330f" fill-opacity="1"><g transform="translate(59.981266, 276.561661)"><g><path d="M 15.203125 0 L 3 0 L 3.046875 -0.5 L 3.65625 -0.5 C 4.519531 -0.5 5.257812 -0.796875 5.875 -1.390625 C 6.488281 -1.992188 6.8125 -2.726562 6.84375 -3.59375 L 6.84375 -31.40625 C 6.84375 -32.269531 6.523438 -33 5.890625 -33.59375 C 5.265625 -34.195312 4.519531 -34.5 3.65625 -34.5 L 3.046875 -34.5 L 3 -35 L 12.953125 -35 C 16.378906 -35 19.039062 -34.238281 20.9375 -32.71875 C 22.84375 -31.207031 23.796875 -29.1875 23.796875 -26.65625 C 23.796875 -24.65625 23.257812 -22.992188 22.1875 -21.671875 C 21.125 -20.359375 19.828125 -19.484375 18.296875 -19.046875 C 20.929688 -18.648438 23.015625 -17.566406 24.546875 -15.796875 C 26.078125 -14.035156 26.84375 -11.8125 26.84375 -9.125 C 26.84375 -6.4375 25.816406 -4.242188 23.765625 -2.546875 C 21.722656 -0.847656 18.867188 0 15.203125 0 Z M 10.09375 -1.796875 L 15 -1.796875 C 15.03125 -1.796875 15.0625 -1.796875 15.09375 -1.796875 C 17.632812 -1.796875 19.601562 -2.488281 21 -3.875 C 22.394531 -5.257812 23.09375 -7.21875 23.09375 -9.75 C 23.09375 -11.1875 22.851562 -12.445312 22.375 -13.53125 C 21.894531 -14.613281 21.285156 -15.46875 20.546875 -16.09375 C 18.617188 -17.695312 15.71875 -18.5 11.84375 -18.5 C 11.84375 -18.5 11.828125 -18.5 11.796875 -18.5 L 11.796875 -18.953125 C 11.828125 -18.953125 11.984375 -18.953125 12.265625 -18.953125 C 12.554688 -18.953125 12.96875 -18.984375 13.5 -19.046875 C 14.03125 -19.117188 14.628906 -19.238281 15.296875 -19.40625 C 15.960938 -19.570312 16.5625 -19.835938 17.09375 -20.203125 C 17.632812 -20.566406 18.132812 -21 18.59375 -21.5 C 19.5625 -22.601562 20.046875 -24.242188 20.046875 -26.421875 C 20.046875 -28.609375 19.421875 -30.316406 18.171875 -31.546875 C 16.921875 -32.785156 15.113281 -33.40625 12.75 -33.40625 L 10.09375 -33.40625 Z M 10.09375 -1.796875 "/></g></g></g><g fill="#25330f" fill-opacity="1"><g transform="translate(59.961631, 275.436836)"><g><path d="M 15.203125 0 L 3 0 L 3.046875 -0.5 L 3.65625 -0.5 C 4.519531 -0.5 5.257812 -0.796875 5.875 -1.390625 C 6.488281 -1.992188 6.8125 -2.726562 6.84375 -3.59375 L 6.84375 -31.40625 C 6.84375 -32.269531 6.523438 -33 5.890625 -33.59375 C 5.265625 -34.195312 4.519531 -34.5 3.65625 -34.5 L 3.046875 -34.5 L 3 -35 L 12.953125 -35 C 16.378906 -35 19.039062 -34.238281 20.9375 -32.71875 C 22.84375 -31.207031 23.796875 -29.1875 23.796875 -26.65625 C 23.796875 -24.65625 23.257812 -22.992188 22.1875 -21.671875 C 21.125 -20.359375 19.828125 -19.484375 18.296875 -19.046875 C 20.929688 -18.648438 23.015625 -17.566406 24.546875 -15.796875 C 26.078125 -14.035156 26.84375 -11.8125 26.84375 -9.125 C 26.84375 -6.4375 25.816406 -4.242188 23.765625 -2.546875 C 21.722656 -0.847656 18.867188 0 15.203125 0 Z M 10.09375 -1.796875 L 15 -1.796875 C 15.03125 -1.796875 15.0625 -1.796875 15.09375 -1.796875 C 17.632812 -1.796875 19.601562 -2.488281 21 -3.875 C 22.394531 -5.257812 23.09375 -7.21875 23.09375 -9.75 C 23.09375 -11.1875 22.851562 -12.445312 22.375 -13.53125 C 21.894531 -14.613281 21.285156 -15.46875 20.546875 -16.09375 C 18.617188 -17.695312 15.71875 -18.5 11.84375 -18.5 C 11.84375 -18.5 11.828125 -18.5 11.796875 -18.5 L 11.796875 -18.953125 C 11.828125 -18.953125 11.984375 -18.953125 12.265625 -18.953125 C 12.554688 -18.953125 12.96875 -18.984375 13.5 -19.046875 C 14.03125 -19.117188 14.628906 -19.238281 15.296875 -19.40625 C 15.960938 -19.570312 16.5625 -19.835938 17.09375 -20.203125 C 17.632812 -20.566406 18.132812 -21 18.59375 -21.5 C 19.5625 -22.601562 20.046875 -24.242188 20.046875 -26.421875 C 20.046875 -28.609375 19.421875 -30.316406 18.171875 -31.546875 C 16.921875 -32.785156 15.113281 -33.40625 12.75 -33.40625 L 10.09375 -33.40625 Z M 10.09375 -1.796875 "/></g></g></g><path stroke-linecap="butt" transform="matrix(0.75, 0, 0, 0.75, 104.4255, 230.436839)" fill="none" stroke-linejoin="miter" d="M 0.000374943 0.500881 L 55.30767 0.500881 " stroke="#25330f" stroke-width="1" stroke-opacity="1" stroke-miterlimit="4"/><path stroke-linecap="butt" transform="matrix(0.75, 0, 0, 0.75, 229.095371, 229.686839)" fill="none" stroke-linejoin="miter" d="M -0.00216141 0.500881 L 55.305134 0.500881 " stroke="#25330f" stroke-width="1" stroke-opacity="1" stroke-miterlimit="4"/><g fill="#25330f" fill-opacity="1"><g transform="translate(144.55123, 297.936835)"><g><path d="M 7.109375 -0.125 C 7.335938 -0.125 7.53125 -0.203125 7.6875 -0.359375 C 7.851562 -0.515625 7.9375 -0.707031 7.9375 -0.9375 L 7.9375 -4.296875 L 2.625 -4.296875 L 2.625 -0.953125 C 2.625 -0.722656 2.707031 -0.523438 2.875 -0.359375 C 3.039062 -0.203125 3.234375 -0.125 3.453125 -0.125 L 3.625 -0.125 L 3.625 0 L 0.78125 0 L 0.78125 -0.125 L 0.953125 -0.125 C 1.171875 -0.125 1.359375 -0.203125 1.515625 -0.359375 C 1.679688 -0.523438 1.769531 -0.722656 1.78125 -0.953125 L 1.78125 -8.15625 C 1.769531 -8.382812 1.679688 -8.578125 1.515625 -8.734375 C 1.359375 -8.890625 1.171875 -8.96875 0.953125 -8.96875 L 0.78125 -8.96875 L 0.78125 -9.09375 L 3.625 -9.09375 L 3.625 -8.96875 L 3.453125 -8.96875 C 3.234375 -8.96875 3.039062 -8.890625 2.875 -8.734375 C 2.71875 -8.578125 2.632812 -8.382812 2.625 -8.15625 L 2.625 -4.6875 L 7.9375 -4.6875 L 7.9375 -8.15625 C 7.9375 -8.46875 7.800781 -8.703125 7.53125 -8.859375 C 7.394531 -8.929688 7.253906 -8.96875 7.109375 -8.96875 L 6.9375 -8.96875 L 6.9375 -9.09375 L 9.78125 -9.09375 L 9.78125 -8.96875 L 9.625 -8.96875 C 9.394531 -8.96875 9.195312 -8.882812 9.03125 -8.71875 C 8.875 -8.5625 8.789062 -8.375 8.78125 -8.15625 L 8.78125 -0.953125 C 8.789062 -0.722656 8.875 -0.523438 9.03125 -0.359375 C 9.195312 -0.203125 9.394531 -0.125 9.625 -0.125 L 9.78125 -0.125 L 9.78125 0 L 6.9375 0 L 6.9375 -0.125 Z M 7.109375 -0.125 "/></g></g></g><g fill="#25330f" fill-opacity="1"><g transform="translate(165.516966, 297.936835)"><g><path d="M 2.203125 -7.96875 C 3.066406 -8.84375 4.191406 -9.28125 5.578125 -9.28125 C 6.960938 -9.28125 8.085938 -8.84375 8.953125 -7.96875 C 9.816406 -7.101562 10.25 -5.960938 10.25 -4.546875 C 10.25 -3.140625 9.816406 -2 8.953125 -1.125 C 8.085938 -0.25 6.960938 0.1875 5.578125 0.1875 C 4.191406 0.1875 3.066406 -0.25 2.203125 -1.125 C 1.335938 -2 0.90625 -3.140625 0.90625 -4.546875 C 0.90625 -5.960938 1.335938 -7.101562 2.203125 -7.96875 Z M 2.90625 -1.390625 C 3.582031 -0.597656 4.472656 -0.203125 5.578125 -0.203125 C 6.679688 -0.203125 7.566406 -0.597656 8.234375 -1.390625 C 8.910156 -2.191406 9.25 -3.242188 9.25 -4.546875 C 9.25 -5.410156 9.097656 -6.171875 8.796875 -6.828125 C 8.492188 -7.484375 8.0625 -7.988281 7.5 -8.34375 C 6.945312 -8.707031 6.304688 -8.890625 5.578125 -8.890625 C 4.472656 -8.890625 3.582031 -8.488281 2.90625 -7.6875 C 2.238281 -6.894531 1.90625 -5.847656 1.90625 -4.546875 C 1.90625 -3.242188 2.238281 -2.191406 2.90625 -1.390625 Z M 2.90625 -1.390625 "/></g></g></g><g fill="#25330f" fill-opacity="1"><g transform="translate(186.807612, 297.936835)"><g><path d="M 7.65625 -7.9375 C 7.65625 -8.144531 7.582031 -8.320312 7.4375 -8.46875 C 7.289062 -8.625 7.117188 -8.707031 6.921875 -8.71875 L 4.453125 -8.71875 L 4.453125 -0.9375 C 4.453125 -0.707031 4.53125 -0.515625 4.6875 -0.359375 C 4.851562 -0.203125 5.050781 -0.125 5.28125 -0.125 L 5.453125 -0.125 L 5.453125 0 L 2.59375 0 L 2.59375 -0.125 L 2.765625 -0.125 C 2.992188 -0.125 3.1875 -0.203125 3.34375 -0.359375 C 3.507812 -0.515625 3.59375 -0.703125 3.59375 -0.921875 L 3.59375 -8.71875 L 1.125 -8.71875 C 0.914062 -8.707031 0.738281 -8.625 0.59375 -8.46875 C 0.457031 -8.320312 0.390625 -8.144531 0.390625 -7.9375 L 0.390625 -7.71875 L 0.265625 -7.703125 L 0.265625 -9.34375 C 0.390625 -9.289062 0.613281 -9.238281 0.9375 -9.1875 C 1.257812 -9.132812 1.550781 -9.109375 1.8125 -9.109375 L 6.21875 -9.109375 C 6.632812 -9.109375 6.984375 -9.140625 7.265625 -9.203125 C 7.554688 -9.273438 7.726562 -9.320312 7.78125 -9.34375 L 7.78125 -7.703125 L 7.65625 -7.71875 Z M 7.65625 -7.9375 "/></g></g></g><g fill="#25330f" fill-opacity="1"><g transform="translate(205.239136, 297.936835)"><g><path d="M 0.953125 -0.125 C 1.171875 -0.125 1.359375 -0.203125 1.515625 -0.359375 C 1.679688 -0.523438 1.769531 -0.722656 1.78125 -0.953125 L 1.78125 -8.234375 C 1.75 -8.441406 1.65625 -8.613281 1.5 -8.75 C 1.351562 -8.894531 1.171875 -8.96875 0.953125 -8.96875 L 0.796875 -8.96875 L 0.78125 -9.09375 L 4.59375 -9.09375 C 4.851562 -9.09375 5.140625 -9.117188 5.453125 -9.171875 C 5.773438 -9.222656 6.003906 -9.273438 6.140625 -9.328125 L 6.140625 -7.703125 L 6 -7.703125 L 6 -7.9375 C 6 -8.132812 5.925781 -8.304688 5.78125 -8.453125 C 5.644531 -8.609375 5.476562 -8.691406 5.28125 -8.703125 L 2.625 -8.703125 L 2.625 -4.6875 L 4.828125 -4.6875 C 4.992188 -4.6875 5.140625 -4.75 5.265625 -4.875 C 5.390625 -5 5.453125 -5.148438 5.453125 -5.328125 L 5.453125 -5.515625 L 5.578125 -5.515625 L 5.578125 -3.453125 L 5.453125 -3.453125 L 5.453125 -3.65625 C 5.453125 -3.820312 5.390625 -3.96875 5.265625 -4.09375 C 5.148438 -4.21875 5.007812 -4.285156 4.84375 -4.296875 L 2.625 -4.296875 L 2.625 -0.40625 L 4.484375 -0.40625 C 5.128906 -0.40625 5.617188 -0.546875 5.953125 -0.828125 C 6.296875 -1.117188 6.578125 -1.546875 6.796875 -2.109375 L 6.921875 -2.109375 L 6.171875 0 L 0.78125 0 L 0.78125 -0.125 Z M 0.953125 -0.125 "/></g></g></g><g fill="#25330f" fill-opacity="1"><g transform="translate(223.13782, 297.936835)"><g><path d="M 0.953125 -0.125 C 1.171875 -0.125 1.359375 -0.203125 1.515625 -0.359375 C 1.679688 -0.523438 1.769531 -0.722656 1.78125 -0.953125 L 1.78125 -8.15625 C 1.769531 -8.375 1.679688 -8.5625 1.515625 -8.71875 C 1.359375 -8.882812 1.171875 -8.96875 0.953125 -8.96875 L 0.78125 -8.96875 L 0.78125 -9.09375 L 3.625 -9.09375 L 3.625 -8.96875 L 3.453125 -8.96875 C 3.140625 -8.96875 2.90625 -8.832031 2.75 -8.5625 C 2.664062 -8.4375 2.625 -8.300781 2.625 -8.15625 L 2.625 -0.40625 L 4.484375 -0.40625 C 5.128906 -0.40625 5.617188 -0.546875 5.953125 -0.828125 C 6.296875 -1.117188 6.578125 -1.546875 6.796875 -2.109375 L 6.921875 -2.109375 L 6.171875 0 L 0.78125 0 L 0.78125 -0.125 Z M 0.953125 -0.125 "/></g></g></g></svg>